<?xml version="1.0" encoding="utf-8"?>
<!-- Generator: Adobe Illustrator 26.5.0, SVG Export Plug-In . SVG Version: 6.00 Build 0)  -->
<svg version="1.1" id="Scene" xmlns="http://www.w3.org/2000/svg" xmlns:xlink="http://www.w3.org/1999/xlink" x="0px" y="0px"
	 viewBox="0 0 995 768" style="enable-background:new 0 0 995 768;" xml:space="preserve">
<style type="text/css">
	.st0{fill:#EABCA0;}
	.st1{fill:#764B00;}
	.st2{fill:#DF986D;}
	.st3{fill:#006837;}
	.st4{fill:#568B62;}
	.st5{fill:#FF926D;}
	.st6{fill:#923E0F;}
	.st7{fill:#FF976D;}
	.st8{fill:#FFFFFF;}
</style>
<g>
	<g id="Pot_00000170272094642325716120000000050263453537688226_">
		<ellipse class="st0" cx="717.7" cy="494.8" rx="77" ry="13.5"/>
		<path id="Soil_00000070118766203167331460000016496969931124909441_" class="st1" d="M774.4,504.6c-16.4,2.2-35.6,3.5-56,3.5
			c-22.6,0-43.7-1.6-61.3-4.2l0.2-0.3c1.6-3.7,26.4-6.5,58.1-6.5c31.7,0,59.4,3.3,59.4,7.3L774.4,504.6L774.4,504.6z"/>
		<path class="st2" d="M794.8,494.8c0,7.4-35,13.5-77,13.5s-77-6-77-13.5l3.2,17.8c0,7.4,31.8,13.5,73.8,13.5s74.3-6,74.3-13.5
			L794.8,494.8z"/>
		<path class="st0" d="M649.5,517.9c10.9,4.8,36.7,8.2,68.2,8.2c31.5,0,56.8-3.3,68.1-8l-17.5,62.8c-0.7,4.2-23.1,8.8-50.6,8.8
			s-47.6-3.7-50.1-8.8L649.5,517.9z"/>
	</g>
	<g id="Plant_00000144307557452794035240000002342332049215088546_">
		<path class="st3" d="M716.3,504.9c0.8-14.6,1.7-29.3,2-43.9c0.4-14.6,0.2-29.3-0.9-43.8c-1-13.3-2.9-26.5-5.9-39.5
			c-2.9-12.2-6.7-24.2-11.8-35.6c-5.1-11.4-11.4-22.2-19-32c-1-1.2-1.9-2.5-2.9-3.6c-0.6-0.7-1.5,0.3-1,1
			c7.9,9.6,14.6,20.2,19.9,31.5c5.3,11.2,9.5,23.2,12.5,35.3c3.2,12.7,5.3,25.6,6.4,38.6c1.3,14.4,1.6,28.8,1.4,43.2
			c-0.2,14.5-1,29-1.8,43.5c-0.1,1.8-0.2,3.6-0.3,5.5C714.9,505.8,716.2,505.8,716.3,504.9L716.3,504.9L716.3,504.9z"/>
		<path class="st3" d="M716.5,502.5c-0.5-18.7-2.1-37.3-4.7-55.8c-2.6-18.6-6.3-37-11-55.2c-4.7-18.1-10.3-36-17-53.5
			c-6.6-17.5-14.2-34.6-22.7-51.2c-8.5-16.7-18-32.8-28.3-48.4c-1.3-2-2.6-3.9-3.9-5.8c-0.5-0.7-1.7,0-1.2,0.7
			c10.5,15.4,20.1,31.3,28.9,47.8c8.8,16.5,16.6,33.6,23.5,51c6.8,17.3,12.7,35,17.6,53c4.9,18,8.8,36.2,11.7,54.6
			c2.9,18.5,4.8,37.2,5.5,55.9c0.1,2.3,0.2,4.7,0.2,7C715.2,503.4,716.6,503.4,716.5,502.5L716.5,502.5L716.5,502.5z"/>
		<path class="st3" d="M720.7,505.1c-1-18.1-1.5-36.2-1.6-54.3c-0.1-18.3,0.1-36.6,0.7-54.9c0.5-18.4,1.4-36.8,2.4-55.2
			c1-18.3,2.2-36.6,3.6-54.9c1.3-18.1,2.7-36.1,4.2-54.2c0.2-2.2,0.4-4.4,0.5-6.6c0.1-0.9-1.3-0.9-1.4,0c-1.4,18-2.9,36.1-4.2,54.1
			c-1.4,18.3-2.6,36.5-3.7,54.8c-1.1,18.4-2,36.8-2.6,55.1c-0.6,18.3-1,36.7-0.9,55c0,18.1,0.4,36.3,1.3,54.4
			c0.1,2.2,0.2,4.4,0.3,6.6C719.4,506,720.8,506,720.7,505.1L720.7,505.1L720.7,505.1z"/>
		<g id="trim_00000114755429826834237970000012464060013752989079_">
			<path class="st4" d="M714,504.4c-1.4-11.3-4.8-22.2-9.9-32.4c-5.1-10.3-11.8-19.7-19.5-28.2c-8-8.9-17-16.7-26.6-23.6
				c-10.5-7.5-21.7-14.1-33.1-20c-11.5-6-23.3-11.3-35.1-16.6c-1.5-0.7-2.9-1.3-4.4-2c-0.8-0.4-1.5,0.8-0.7,1.2
				c11.8,5.3,23.5,10.5,35,16.3c11.4,5.7,22.6,12,33.1,19.1c9.9,6.7,19.3,14.3,27.6,23c7.9,8.2,14.9,17.4,20.4,27.4
				c5.4,9.8,9.4,20.5,11.3,31.6c0.2,1.4,0.4,2.8,0.6,4.2C712.7,505.3,714.1,505.3,714,504.4L714,504.4L714,504.4z"/>
			<path class="st4" d="M595.3,387.3c0.5-12.1,6.4-23.7,2.5-35.3c-2.4-7.3-8.3-11.9-13.8-12.8c-5.6-1-10.9,1.1-15.9,3.5
				c-6.5,3.1-13,7.2-17.1,14.7c-4.1,7.5-4.9,19.4-0.2,27.6c4.5,7.9,12.3,10,19,9.2c6.7-0.8,13.1-3.8,19.9-3.6"/>
		</g>
		<path class="st4" d="M637.9,236.7c10.8-3,15.1-17.6,10.3-27.7s-16.1-15.8-27.2-17.5c-2.5-0.4-5.1-0.6-7.5,0.1
			c-2.5,0.8-4.7,2.5-6.6,4.4c-8.5,8.5-13.4,20.4-13.4,32.4c0,2.4,0.2,4.9,1.4,7c2.1,3.7,6.7,5.2,10.9,5.9c7.9,1.3,16.1,1,23.8-0.9"
			/>
		<path class="st4" d="M692.6,321.4c7.9-1.7,14.4-8.7,15.6-16.7c0.5-3.4,0.2-6.9-1.3-10c-3.3-7.2-12.2-10.9-20-9.7
			c-7.9,1.1-14.7,6.3-19.7,12.5c-4.9,6.1-8.2,14.9-4.2,21.5c5.1,8.3,17.3,7.3,26.8,5.2"/>
		<path class="st4" d="M727.9,235.6c-16.7-4-28.3-22.5-24.6-39.2c1-4.4,3-8.8,6.6-11.5c3.8-2.9,8.9-3.5,13.7-3.7
			c6.4-0.3,13.1,0.1,18.8,3.2c9,4.9,13.2,16.5,10.7,26.4c-2.6,9.9-11.3,17.6-21.2,20.1"/>
		<g>
			<path class="st3" d="M723.7,502.5c-1.4-19.4,0.7-38.8,5.3-57.7c4.6-19,11.6-37.4,19.9-55.1c8.3-17.8,17.9-35,28-51.9
				c10.1-16.9,19.4-32,30.5-47c11-14.9,23.4-28.9,37.8-40.5c1.9-1.5,3.8-3,5.7-4.4c0.7-0.5,0-1.7-0.7-1.2
				c-15,11-27.9,24.5-39.3,39.2c-11.6,14.8-21.6,30.7-31.3,46.8c-10.2,17-20.1,34.2-28.8,52.1c-8.6,17.7-16.1,36.1-21.3,55.1
				c-5.1,18.7-8,38-7.4,57.4c0.1,2.4,0.2,4.9,0.4,7.3C722.4,503.3,723.8,503.4,723.7,502.5L723.7,502.5L723.7,502.5z"/>
			<path class="st4" d="M840.1,252c-3.4-3.2-6.7-7-7.2-11.6c-0.9-7.7,6.3-14,13.6-16.5c11.3-3.8,24.4-1.8,34,5.4
				c1.9,1.4,3.8,3.2,4.3,5.6c0.4,1.8-0.1,3.7-0.8,5.5c-4.3,11.6-15.9,20.2-28.3,21c-3.7,0.2-7.5-0.2-10.7-2.1
				c-3.2-1.9-5.5-5.5-5.2-9.1"/>
		</g>
		<g>
			<path class="st3" d="M724.1,506.1c1.5-10.2,3.9-20.3,7.1-30.2c3.2-9.8,7.3-19.4,12.1-28.6c4.8-9.1,10.3-17.9,16.5-26.1
				c6.2-8.3,13.1-16,20.6-23.2c7.5-7.1,15.6-13.6,24.2-19.4c1.1-0.7,2.1-1.4,3.2-2.1c0.7-0.5,0.1-1.7-0.7-1.2
				c-8.8,5.6-17.1,12-24.8,19c-7.7,7-14.7,14.6-21.1,22.8c-6.4,8.2-12.2,16.9-17.3,26.1c-5,9.1-9.3,18.6-12.7,28.4
				c-3.5,9.8-6.1,20-7.8,30.3c-0.2,1.2-0.4,2.5-0.6,3.7C722.6,506.6,724,507,724.1,506.1L724.1,506.1L724.1,506.1z"/>
			<path class="st4" d="M797.2,381.8c-0.3-7.8,1.6-16,6.8-21.8c5.3-5.8,14.4-8.4,21.3-4.7c7.4,3.9,10,13.1,10.8,21.4
				c0.4,4.2,0.5,8.7-1.4,12.4c-2.1,4.1-6.4,6.7-10.8,8.2c-5.6,1.8-12,1.9-17-1.2c-5-3-8-9.7-5.7-15.1"/>
		</g>
	</g>
</g>
<g>
	<path class="st5" d="M688.4,520.9c2.4,49.8,5.5,70.4,2.8,120.3c-0.1,2.1-0.3,4.3-1.8,5.8c-1.2,1.2-3,1.5-4.7,1.8
		c-104.4,17-189.7,27.1-295.4,30.5c-3.9,0.1-70.7,0.5-81-0.9l-4.3-0.7c-2.1,1-4.6,0.8-6.9,0.6c-42.1-4-82.5-18.2-124.1-26
		c-15.8-3-33.6-6-43.1-19c-4.6-6.4-6.5-14.3-8.2-22c-10.9-51.1-15.1-103.7-12.7-155.9l-0.6-3c0.4-18.7,0-42.6,0-61.2
		c0-52.5,4.3-92.2,24.9-131.6s39.3-57.9,77.3-81s131.4-30.3,173-14.7c20.4,7.6,36.8,14.9,52.7,29.7c44.4,41.1,74,98,82.2,158
		c0.6,4.2,1.3,8.9,4.7,11.4c2,1.5,4.6,1.9,7.1,2.3c43.7,6.6,40.5,13.2,84.3,19.8c26.1,3.9,54,8.7,73.2,26.8
		c8.9,8.4,15.6,21.1,12.1,32.8c-4.5,14.7-9.6,26.6-24.5,30.3c-13.7,3.4-48.6-4.6-54.3-17.5c-4.8-10.8,1.8-42.3,29.5-49.7"/>
	<g>
		<path class="st6" d="M687,520.9c1.7,33.9,4.6,67.7,3.6,101.7c-0.1,5-0.4,10.1-0.6,15.1c-0.1,2.4,0.2,5.4-1.1,7.5
			c-1.5,2.3-4.9,2.3-7.5,2.7c-10.3,1.7-20.7,3.3-31,4.9c-20.1,3.1-40.2,6-60.3,8.6c-38.6,5.1-77.3,9.1-116.2,12
			c-31.1,2.3-62.4,4.3-93.6,4.5c-21.2,0.1-42.5,0.3-63.8-0.5c-2.8-0.1-6-0.2-8.5-0.6c-1.1-0.2-2.3-0.5-3.4-0.5
			c-1.7-0.1-3.3,0.7-5,0.7c-5.1-0.1-10.4-1-15.5-1.7c-20.4-2.9-40.4-7.8-60.3-12.8c-19.3-4.8-38.6-9.1-58.1-13
			c-8.1-1.6-16.4-3.6-23.6-7.6c-7.8-4.3-13.1-11-15.9-19.5c-3.2-9.5-4.7-19.7-6.5-29.5c-1.9-10.6-3.6-21.2-4.9-31.9
			c-2.6-20.8-4.2-41.8-4.7-62.8c-0.2-10.5-0.2-21,0.1-31.5c0.1-4,0.9-8.5,0.2-12.5c-0.6-3.6-0.3-7.3-0.3-11
			c0.2-18.7-0.2-37.3-0.1-56c0.1-35,2.3-70.6,14.3-103.7c5.7-15.6,13.5-30.5,22.5-44.5c7.7-12,16.7-22.9,27.3-32.5
			c11.5-10.4,24.4-19.1,37.6-27c10.3-6.2,21.9-10.1,33.4-13.1c28.3-7.5,58.3-10.3,87.6-9.4c13.2,0.4,26.4,1.6,39.2,4.7
			c14.5,3.5,29.1,9.7,42,17c15.5,8.8,28.3,21.3,40,34.6c11.7,13.3,22.1,27.8,30.9,43.2c8.8,15.4,16.1,31.6,21.7,48.4
			c2.8,8.3,5.1,16.8,7,25.3c1.9,8.4,2.7,17,4.5,25.5c0.7,3.4,2.1,6.7,5.1,8.7c3.6,2.3,8.5,2.4,12.6,3c7.7,1.3,15.3,2.8,22.8,4.8
			c10.9,2.9,21.5,7,32.4,9.6c32.6,7.9,71.7,6.5,97.1,31.9c6.2,6.2,11.5,14.7,11.6,23.8c0.1,4.3-1.4,8.4-2.8,12.4
			c-1.2,3.5-2.6,6.9-4.4,10.2c-3.7,6.5-9.2,11.3-16.5,13.3c-5.3,1.5-11.1,1.1-16.5,0.4c-6.7-0.8-13.3-2.4-19.6-4.7
			c-5.4-2-11.2-4.6-15.2-8.9c-6.2-6.7-3.5-18.6-0.6-26.2c4.7-12.1,14.3-21.4,26.9-24.9c1.7-0.5,1-3.1-0.7-2.7
			c-12.6,3.5-22.6,12.5-27.8,24.5c-3.4,7.8-6.2,19-2.4,27.2c2.1,4.6,6.7,7.7,11,10c5.8,3.1,12.2,5.2,18.6,6.7
			c11.7,2.7,25.5,4.4,35.9-2.8c5.7-3.9,9.3-9.8,12-16.1c3-7.1,5.8-14.6,4.5-22.4c-2.8-17.2-18.7-29.5-33.5-36.4
			c-16-7.5-33.7-10.5-51.1-13.2c-14.8-2.3-29.2-5.3-43.4-9.9c-13.6-4.4-27.3-7.8-41.5-10c-5.3-0.8-9.8-1.7-11.5-7.5
			c-1.2-4.2-1.5-8.8-2.2-13.1c-1.5-9-3.5-17.8-5.9-26.6c-9.6-34.6-26.2-67.2-48.6-95.4c-11.1-14-23.6-27.8-38.2-38.3
			c-13.6-9.8-29.7-16.9-45.5-22c-12-3.9-24.8-5.6-37.3-6.5c-15.3-1.1-30.6-0.9-45.9,0.3c-15,1.2-30.1,3.3-44.8,6.6
			c-12.6,2.8-25.1,6.5-36.7,12.3c-6.5,3.3-12.7,7.3-18.7,11.4c-6.4,4.2-12.6,8.7-18.5,13.5c-11.1,9-20.9,19.5-29.2,31.1
			c-19.6,27.4-32.7,59-38,92.3c-6,37.5-4.1,75.6-4.2,113.4c0,4.8,0,9.5-0.1,14.3c0,1.3,0,2.4,0.2,3.6c0.4,1.9,0.3,3.7,0.2,5.7
			c-0.4,10.9-0.6,21.7-0.5,32.6c0.3,21.7,1.7,43.5,4.3,65.1c1.3,10.5,2.8,21,4.6,31.5c1.8,10.3,3.5,20.7,6.3,30.7
			c2.3,8.4,6.2,16.1,13.2,21.5c6.1,4.7,13.5,7.4,20.8,9.4c9,2.3,18.3,3.7,27.4,5.6c10.3,2.2,20.5,4.7,30.6,7.2
			c20.9,5.2,41.7,10.6,63,14.1c4.9,0.8,9.8,1.5,14.8,2.1c2.5,0.3,5,0.7,7.5,0.7c1.7,0,3.3-0.7,4.8-0.7c3,0,6.4,0.8,9.4,1
			c10.6,0.5,21.2,0.5,31.7,0.6c22.4,0.1,44.8,0,67.2-1c41.1-1.8,82.1-4.8,123.1-9.1c40.6-4.3,81-9.9,121.4-16.1
			c5.4-0.8,10.9-1.7,16.3-2.6c2.7-0.4,5.3-0.9,8-1.3c2.2-0.4,4.7-0.5,6.8-1.4c3.6-1.5,4-5.2,4.2-8.6c0.3-5.1,0.5-10.3,0.7-15.4
			c0.6-17.1,0.3-34.1-0.5-51.2c-0.9-17.7-2.1-35.4-3-53C689.7,519.1,686.9,519.1,687,520.9L687,520.9z"/>
	</g>
</g>
<g>
	<path class="st7" d="M313.8,546.7c114.1-10.1,240.8-12.5,347.9-20.2c11.7-0.9,27.6,1.6,26.7-10.1c-0.9-12,2.3-28.5-7.6-34.8
		c-4.7-3-10.5-3.1-16-3.2c-81.4-1.3-132-5.4-212.9,3c-28.1,2.9-96.3,12.2-140.8,19.3c0,0,96.5-15.2,160.6-21.2
		c64.1-6,187.7-1.3,187.7-1.3s9.3,0.3-2.7-3.5c-12-3.8-29.8-10.9-29.8-10.9c-13.7-3.6-38.5-13.2-51.2-15.7
		c-37.2-7.4-79.4-25.6-117.2-23c-50.3,3.5-95.7,0-147.3,9.2"/>
	<g>
		<path class="st6" d="M313.8,548.1c29.2-2.6,58.5-4.6,87.8-6.4c29.8-1.8,59.7-3.3,89.5-4.7c29.4-1.4,58.8-2.7,88.1-4.2
			c27.8-1.4,55.6-3.4,83.4-5c5-0.3,9.9,0,14.9-0.6c3.7-0.4,8-1.2,10.5-4.2c2.9-3.5,1.7-8.6,1.7-12.8c0-5.3,0.2-10.7-0.5-16
			c-0.6-4.6-2.2-9.5-5.9-12.6c-4.8-4.1-11.4-4.6-17.5-4.7c-14.8-0.3-29.7-0.6-44.5-1c-26.3-0.7-52.6-1.4-78.9-1.1
			c-27.8,0.3-55.5,1.7-83.2,4.4c-20.2,2-40.3,4.6-60.3,7.3c-24.1,3.2-48.2,6.6-72.3,10.3c-5.3,0.8-10.6,1.6-15.9,2.5
			c-1.8,0.3-1,2.9,0.7,2.7c11.7-1.8,23.3-3.6,35-5.3c25.4-3.7,50.8-7.2,76.3-10.4c24.4-3,48.8-5.9,73.3-7.1
			c24.5-1.2,49-1.4,73.5-1.4c21.5,0.1,42.9,0.4,64.4,1c6.5,0.2,12.9,0.4,19.4,0.6c2.3,0.1,4.5,0.2,6.8,0.2c1,0,2.3,0,3.2-0.6
			c1.4-0.9,0.9-2.4-0.2-3.2c-2.2-1.6-5.4-2.2-8-3.1c-3.1-1-6.2-2.1-9.2-3.2c-5.4-2-10.8-4-16.2-6.1c-3.6-1.4-7.4-2.3-11-3.5
			c-12.6-4-24.9-8.7-37.7-12c-6.7-1.8-13.5-2.9-20.2-4.6c-7.9-2-15.8-4.2-23.7-6.4c-16-4.5-32.1-9-48.5-11.5
			c-7.7-1.2-15.5-1.9-23.4-1.9c-8.5,0.1-17,0.9-25.4,1.3c-34.4,1.4-69,0.7-103.3,4.5c-8.6,1-17.2,2.2-25.8,3.7c-1.7,0.3-1,3,0.7,2.7
			c34.1-6,68.6-6.6,103.1-7.4c8.5-0.2,17-0.4,25.6-0.8c8.4-0.4,16.7-1.2,25.1-1.3c16-0.1,31.9,3,47.4,6.9
			c15.8,3.9,31.3,8.8,47.1,12.8c6.6,1.7,13.3,2.9,19.8,4.5c6.1,1.6,12.2,3.6,18.2,5.6c6.3,2.1,12.6,4.2,18.9,6.2
			c3.8,1.2,7.8,2.1,11.5,3.6c4.9,1.9,9.9,3.8,14.9,5.6c3.1,1.1,6.2,2.2,9.3,3.3c3,1,5.9,2.1,8.8,3.1c0.1,0,0.2,0.2,0.3,0.2
			c0,0,0,0,0.1,0.1c0.4,0.4,0.5-0.1,0.3-1.5c-0.1,0,0,0.1-0.3,0.1c-0.4,0-0.9,0.1-1.4,0.1c-0.3,0-0.6,0-1,0c-0.9,0-1.9-0.1-2.8-0.1
			c-5.3-0.2-10.5-0.3-15.8-0.5c-19.8-0.6-39.6-0.9-59.3-1.1c-24.4-0.2-48.7-0.1-73.1,0.8c-23.4,0.8-46.5,3-69.8,5.7
			c-26.1,3.1-52.1,6.6-78.1,10.3c-15.8,2.3-31.6,4.6-47.4,7c-0.8,0.1-1.5,0.2-2.3,0.4c0.2,0.9,0.5,1.8,0.7,2.7
			c23.1-3.7,46.2-7.1,69.4-10.3c20.9-2.9,41.8-5.7,62.8-8.1c25.3-2.9,50.8-4.8,76.3-5.6c25.4-0.8,50.9-0.5,76.3,0.1
			c13.5,0.3,27.1,0.7,40.6,1c7.4,0.2,14.7,0.3,22.1,0.5c6.8,0.1,14.9-0.7,21,3c4.3,2.6,5.9,7.5,6.6,12.2c0.7,5.3,0.4,10.6,0.5,15.9
			c0,3.9,1.5,9.2-2.4,11.7c-3.5,2.3-8.5,2.2-12.5,2.4c-12,0.3-24,1.3-36.1,2.1c-13.7,0.9-27.4,1.7-41.1,2.4
			c-28.7,1.5-57.4,2.9-86.2,4.2c-29.1,1.4-58.3,2.8-87.4,4.4c-28.9,1.6-57.8,3.4-86.7,5.7c-6.9,0.6-13.8,1.1-20.8,1.7
			C312,545.5,312,548.2,313.8,548.1L313.8,548.1z"/>
	</g>
</g>
<g>
	<g>
		<path d="M681,482.7c1.8,0,1.8-2.8,0-2.8C679.2,480,679.2,482.7,681,482.7L681,482.7z"/>
	</g>
</g>
<g>
	<g>
		<path class="st6" d="M519.6,363.2c-7.5-0.2-14.9,1-22,3.4c-6.7,2.2-13.6,5.5-19.2,9.9c-8.7,6.9-11.3,19.3-12.3,29.8
			c-0.6,6.3-0.6,12.6-0.1,18.9c0.1,1.8,2.9,1.8,2.8,0c-0.9-10.8-0.6-22.1,2.6-32.4c1.5-4.7,3.6-9.3,7.2-12.8
			c2.2-2.1,4.9-3.7,7.5-5.2c3.1-1.8,6.4-3.4,9.8-4.6c7.6-2.8,15.6-4.3,23.7-4.1C521.4,366,521.4,363.3,519.6,363.2L519.6,363.2z"/>
	</g>
</g>
<g>
	<g>
		<path class="st6" d="M311.2,667.1c1.6-10.5,2.2-21,2.5-31.6c0.3-10.9,0.5-21.7,0.7-32.6c0.4-21.6,0.8-43.3,0.8-64.9
			c0-12.2-0.1-24.5-0.4-36.7c0-1.8-2.8-1.8-2.8,0c0.5,21.6,0.5,43.1,0.3,64.7c-0.2,21.5-0.7,43.1-1.2,64.6
			c-0.3,11.9-0.6,23.9-2.5,35.7C308.3,668.1,311,668.9,311.2,667.1L311.2,667.1z"/>
	</g>
</g>
<g>
	<g>
		<path class="st6" d="M264.7,505c-12.3-5.5-25-10.1-37.7-14.5c-13.5-4.7-27.1-9-40.7-13.4c-7-2.3-14.1-4.6-21.1-6.9
			c-1.7-0.6-2.4,2.1-0.7,2.7c26.1,8.8,52.6,16.6,78.4,26.3c6.9,2.6,13.7,5.3,20.4,8.3C265,508.1,266.4,505.7,264.7,505L264.7,505z"
			/>
	</g>
</g>
<g id="Cat">
	<g>
		<path class="st8" d="M189.6,204.2c26.1,11.1,58.5,5.8,79.7-13.1c12.1-10.8,20.9-25.5,35-33.3c5.2,23.9,4.9,48.9-0.8,72.6
			c6.7,3.6,15.4-0.4,19.6-6.8c4.2-6.4,4.9-14.3,5.3-21.9c0.8-16.2,0.7-32.8-4.8-48c6.8,2.8,10.5,6.6,17.8,7.8c12,2,21-1,27-4
			c9.8-4.9,11-6,9-10c-4.1-8.2-4.6-15-12-20c-6-4-10-7.9-10-19c-9.7,13.1-30,14-30,14c-35-9-109,5-129,23s-35.1,59.4-35.7,88.2
			c-0.2,9.8,0.7,20.1,6.2,28.1c5.8,8.4,15.9,13,26,14.1c10.1,1.1,20.3-0.9,30.1-3.4c10.4-2.6,22.1-7.3,24.9-17.6
			c0.6-2.1,0.7-4.6-0.7-6.4c-1.8-2.4-5.3-2.5-8.2-2.1c-13.5,1.9-27.8,9.9-39.6,3.2c-9-5.1-11.8-16.7-11.9-27.1
			c-0.1-14.4,3.4-28.8,10.2-41.5"/>
		<g>
			<path d="M189.2,204.8c15.9,6.7,33.8,7.6,50.4,3c8.3-2.3,16.2-5.9,23.2-10.7c7.3-5.1,13.3-11.6,19.2-18.2
				c6.8-7.6,13.6-15.5,22.6-20.5c-0.4-0.1-0.7-0.3-1.1-0.4c4,18.5,4.8,37.7,2.2,56.4c-0.7,5.3-1.7,10.6-3,15.8
				c-0.1,0.3,0,0.7,0.3,0.8c4.7,2.4,10.1,1.5,14.5-1.2c4.9-3,7.9-8,9.5-13.5c1.8-6.2,2-12.8,2.2-19.3c0.3-7,0.3-14-0.3-20.9
				c-0.7-7.7-2.1-15.4-4.7-22.7c-0.3,0.3-0.6,0.6-0.9,0.9c4,1.7,7.7,4.2,11.7,6c4.3,1.9,9,2.5,13.6,2.5c8,0.1,15.3-2.3,22.4-5.9
				c2.4-1.2,5.7-2.6,7.3-4.9c1.1-1.6,0.5-3.2-0.2-4.8c-3.3-6.9-5-15-11.4-19.8c-2.8-2.1-5.7-3.8-7.7-6.8c-2.4-3.6-2.9-8-2.9-12.2
				c0-0.8-1-0.9-1.4-0.4c-4.7,6.3-12.1,10-19.6,12c-2.5,0.7-5,1.2-7.6,1.5c-0.6,0.1-1.3,0.2-1.9,0.2c-0.7,0-1.5-0.3-2.2-0.5
				c-14.4-3.2-29.6-2.7-44.2-1.4c-16.4,1.5-32.8,4.4-48.6,9c-6.8,2-13.5,4.3-19.9,7.1c-5,2.2-10,4.8-14.2,8.4
				c-5.8,4.9-10.5,11.3-14.5,17.8c-4.8,7.7-8.7,16-11.9,24.4c-6.4,16.6-10.6,34.6-10.1,52.5c0.3,9.9,2.5,20.2,9.8,27.4
				c6.8,6.7,16.5,9.9,25.9,10.4c5.9,0.3,11.9-0.3,17.7-1.4c5.2-1,10.4-2.2,15.4-3.8c7.5-2.5,15.7-6.6,19-14.3
				c1.5-3.6,2.1-8.8-2.1-10.9c-4-2-9.3-0.4-13.4,0.6c-9.6,2.3-20.5,7-30.3,3.2c-8.8-3.4-12.5-12.9-13.5-21.6
				c-1.3-10.6,0.3-21.8,3.4-32c1.6-5.3,3.7-10.3,6.3-15.2c0.5-0.9-0.8-1.6-1.3-0.8c-5.1,9.6-8.4,20.1-9.7,30.9
				c-1.1,9.2-1.2,19.2,2.5,27.8c1.6,3.7,3.9,7.1,7.1,9.5c3.6,2.8,8.1,4,12.6,4.1c10.3,0.2,19.8-4.7,29.8-5.9c2.1-0.3,4.7-0.3,6.5,1
				c2.1,1.6,2,4.6,1.3,6.9c-1.2,4-4,7.3-7.3,9.7c-3.5,2.5-7.5,4.2-11.6,5.5c-5,1.6-10.2,2.8-15.3,3.8c-10.7,2-22.1,2.4-32.3-2.2
				c-4.4-2-8.4-4.7-11.5-8.4c-3.2-3.8-5.2-8.5-6.3-13.4c-2-9-1.6-18.6-0.4-27.7c1.1-8.9,3.3-17.7,6-26.3c2.8-8.7,6.3-17.3,10.5-25.4
				c3.9-7.3,8.4-14.5,14-20.6c3.9-4.3,8.3-7.6,13.4-10.3c5.9-3.1,12.1-5.5,18.3-7.5c15.2-5,31.1-8.2,46.9-10.1
				c15.1-1.8,30.7-2.7,45.7-0.5c1.5,0.2,3.1,0.5,4.6,0.8c1.1,0.2,2.4,0.7,3.6,0.8c1.3,0.1,2.7-0.3,4-0.4c6.3-1,12.7-2.9,18.2-6.3
				c3.3-2,6.1-4.5,8.5-7.6c-0.5-0.1-0.9-0.3-1.4-0.4c0,3.6,0.4,7.3,1.8,10.6c1.1,2.6,2.9,4.7,5.1,6.5c2.7,2.2,5.7,3.8,7.9,6.6
				c2.2,2.9,3.4,6.4,4.8,9.8c0.7,1.8,1.5,3.7,2.4,5.5c0.4,0.8,0.9,1.7,0.9,2.6c0,2-2.9,3.3-4.4,4.1c-6.7,3.8-13.7,6.7-21.5,7.1
				c-5.2,0.3-10.6-0.1-15.4-2.1c-4.3-1.8-8.1-4.5-12.4-6.3c-0.5-0.2-1.1,0.4-0.9,0.9c4.4,12.2,5.4,25.3,5.2,38.2
				c-0.1,6.2-0.2,12.6-1.2,18.8c-0.9,5.7-2.8,11.6-7.1,15.6c-4.2,3.9-10.5,6-15.8,3.3c0.1,0.3,0.2,0.6,0.3,0.8
				c4.5-18.6,5.7-38,3.5-57c-0.6-5.4-1.5-10.7-2.7-16c-0.1-0.5-0.7-0.7-1.1-0.4c-15.5,8.7-24.4,25-38.1,35.9
				c-13.4,10.7-30.7,16.3-47.8,16.2c-9.6-0.1-19.3-1.9-28.1-5.7C189.1,203.1,188.4,204.4,189.2,204.8L189.2,204.8z"/>
		</g>
	</g>
	<g>
		<g>
			<path d="M356.2,135.6c0,0,0.1,0,0.1,0C356.4,135.5,356.5,135.5,356.2,135.6c-0.3-0.2-0.5-0.4-0.8-0.6c0,0,0,0,0,0
				c0.1-0.3,0.2-0.6,0.3-0.8c-0.1,0,0.3-0.1,0.1-0.1c0,0-0.1,0-0.1,0c-0.1,0-0.2,0.1-0.4,0.1c-0.4,0.1-0.8,0.3-1.2,0.4
				c-0.9,0.3-1.7,0.6-2.6,0.9c-0.1,0.1-0.3,0.1-0.4,0.2c-0.1,0-0.3,0.1-0.3,0.1c-0.3,0.2-0.4,0.5-0.3,0.8c0,0,0,0,0,0
				c0,0.3,0.4,0.5,0.7,0.6c0.1,0,0.2,0,0.4-0.1c0.4-0.1,0.7-0.5,0.5-0.9c-0.1-0.4-0.5-0.7-0.9-0.5c0,0-0.1,0-0.1,0
				c-0.1,0-0.1,0,0.2,0c0.2,0.2,0.5,0.4,0.7,0.6c0,0,0,0,0,0c-0.1,0.3-0.2,0.6-0.3,0.8c0.1,0-0.3,0.1-0.1,0.1c0,0,0.1,0,0.1,0
				c0.1,0,0.2-0.1,0.4-0.1c0.4-0.1,0.8-0.3,1.2-0.4c0.9-0.3,1.7-0.6,2.6-0.9C355.9,135.7,356.1,135.6,356.2,135.6
				c0.1,0,0.3-0.1,0.3-0.1c0.3-0.2,0.4-0.5,0.3-0.8c0,0,0,0,0,0c0-0.3-0.4-0.5-0.7-0.6c-0.1,0-0.2,0-0.4,0.1
				c-0.4,0.1-0.7,0.5-0.5,0.9C355.4,135.4,355.8,135.7,356.2,135.6L356.2,135.6z"/>
		</g>
	</g>
	<g>
		<g>
			<path d="M373.7,146.6c-0.7,0.9-0.9,2.1-0.5,3.2c0.4,1,1.2,2,2.4,2.2c0.4,0.1,0.8-0.1,0.9-0.5c0.1-0.4-0.1-0.8-0.5-0.9
				c-0.1,0-0.2,0-0.3-0.1c0,0,0,0,0,0c-0.1,0-0.1,0,0,0c0,0-0.1,0-0.1-0.1c-0.1,0-0.2-0.1-0.3-0.2c-0.2-0.1,0.1,0.1,0,0
				c0,0-0.1-0.1-0.1-0.1c-0.1-0.1-0.1-0.1-0.2-0.2c0,0,0,0-0.1-0.1c0.1,0.1,0.1,0.1,0,0.1c0,0-0.1-0.1-0.1-0.1
				c-0.1-0.1-0.1-0.2-0.1-0.2c0,0,0-0.1-0.1-0.1c-0.1-0.1,0.1,0.2,0,0c0-0.1-0.1-0.2-0.1-0.3c0-0.1,0-0.2-0.1-0.3c0,0.1,0,0.1,0,0.1
				c0,0,0,0,0,0c0-0.1,0-0.1,0-0.2c0-0.1,0-0.2,0-0.3c0,0,0,0,0-0.1c0-0.1,0,0,0,0.1c0,0,0-0.1,0-0.1c0-0.1,0.1-0.2,0.1-0.3
				c0-0.1-0.1,0.1,0,0c0,0,0-0.1,0.1-0.1c0,0,0-0.1,0.1-0.1c0.1-0.2-0.1,0.1,0,0c0.2-0.3,0.3-0.8,0-1.1
				C374.5,146.4,374,146.3,373.7,146.6L373.7,146.6z"/>
		</g>
	</g>
	<g>
		<g>
			<path d="M363.2,125.5c0-0.1,0-0.2,0-0.3c0-0.2,0,0,0-0.2c0-0.2,0.1-0.5,0.1-0.7c0.1-0.5,0.3-1.1,0.5-1.6c0.4-1.1,0.8-2.2,1.3-3.4
				c0.3-0.8,0.7-1.7,0.9-2.6c0.1-0.3,0.1-0.6,0.1-0.9c-0.2-0.7-1.2-0.8-1.9-0.8c-2.3,0.1-4.6,0.4-6.9,0.5c-1,0.1-1,1.6,0,1.5
				c1.9-0.1,3.8-0.3,5.7-0.4c0.4,0,0.9-0.1,1.3-0.1c0.1,0,0.3,0.1,0.4,0c0.1,0-0.1-0.3-0.1-0.4c0,0,0-0.1,0,0c0,0.1,0-0.2,0,0
				c0,0.1-0.1,0.3-0.1,0.4c-0.6,1.9-1.5,3.8-2.1,5.7c-0.3,1-0.7,2-0.7,3C361.7,126.5,363.2,126.5,363.2,125.5L363.2,125.5z"/>
		</g>
	</g>
</g>
<g id="Doggo">
	<g>
		<path class="st8" d="M531.1,387.7c8.1-0.8,16.1-1.6,24.2-2.4c2-0.2,4.2-0.4,6,0.6c4,2.2,3.2,8.1,1.9,12.5c0,0-12.3-10.2-18,2.9"/>
		<g>
			<path d="M531.1,388.5c8.2-0.8,16.4-1.7,24.6-2.5c1.7-0.2,3.6-0.3,5.2,0.6c1.3,0.7,2,1.9,2.4,3.3c0.7,2.7,0,5.7-0.8,8.3
				c0.4-0.1,0.8-0.2,1.3-0.3c-2.1-1.8-4.8-3.2-7.5-3.7c-2.1-0.4-4.3-0.4-6.2,0.6c-2.6,1.2-4.3,3.7-5.4,6.3c-0.4,0.9,0.9,1.6,1.3,0.8
				c1-2.4,2.5-4.7,5-5.8c1.8-0.8,3.7-0.7,5.6-0.2c2.2,0.6,4.7,1.9,6.2,3.2c0.4,0.4,1.1,0.2,1.3-0.3c0.9-2.9,1.5-6.1,0.8-9.1
				c-0.7-3-3.1-4.8-6.1-5c-2.1-0.2-4.2,0.2-6.3,0.4c-2.3,0.2-4.6,0.5-6.9,0.7c-4.8,0.5-9.5,1-14.3,1.4
				C530.1,387.1,530.1,388.6,531.1,388.5L531.1,388.5z"/>
		</g>
	</g>
	<g>
		<path class="st8" d="M504.8,435.4c6.7,5.1,19.9,7,36.7,11.1c4.6,1.1,18,2,23-5c4.6-6.5,6.8-12.6,2-19s-8-6.3-13.7-11.9
			c-6.6-6.5-10.7-15.2-17.8-21.1c-7.7-6.5-18.1-9-28.2-8.8s-19.9,2.7-29.7,5.2l1-0.7c-28.2-9.1-56.7-18.3-86.2-20.2
			c-29.5-1.9-60.6,4.2-83.7,22.7c-10.7,8.7-21,19-20.9,34.4c0.1,15.4,11.1,19.4,31.1,28.4c12.1,5.4,23-14.9,73-21
			C424.1,425.5,504.8,435.4,504.8,435.4z"/>
		<g>
			<path d="M504.5,436.1c4,3,9,4.5,13.7,5.7c6.8,1.8,13.7,3.2,20.5,4.8c4.6,1.1,9.1,1.7,13.8,1.2c4.6-0.5,9.5-1.9,12.4-5.7
				c4.1-5.3,6.8-12.2,3.2-18.5c-1.5-2.6-3.7-5-6.1-6.8c-2.3-1.8-4.7-3.2-6.9-5.1c-5.2-4.5-8.8-10.5-13.1-15.9
				c-4.2-5.4-9.2-9.8-15.6-12.4c-16-6.7-33.5-2.4-49.5,1.7c0.2,0.5,0.4,0.9,0.6,1.4c0.3-0.2,0.7-0.4,1-0.7c0.5-0.4,0.5-1.2-0.2-1.4
				c-22.1-7.1-44.3-14.3-67.2-18c-20.4-3.3-41.4-3.7-61.6,1c-18.8,4.4-36.4,13.4-50.1,27.1c-6.2,6.2-11.2,13.7-12.4,22.5
				c-1,6.7-0.1,13.7,4.5,19c4.7,5.3,11.7,8.4,18,11.3c2.2,1,4.4,2,6.7,3c1.1,0.5,2.3,1.1,3.5,1.5c1.4,0.4,2.8,0.5,4.2,0.4
				c3.4-0.3,6.7-1.9,9.7-3.3c4.6-2.2,9.1-4.6,13.7-6.7c14.9-6.7,31.1-10.7,47.4-12.2c13.3-1.2,26.7-0.6,40,0.1
				c14.4,0.7,28.9,1.9,43.3,3.3c8.6,0.8,17.1,1.7,25.7,2.7c0.4,0,0.8,0.1,1.2,0.1c1,0.1,0.9-1.4,0-1.5c-5.9-0.7-11.7-1.3-17.6-2
				c-13.2-1.4-26.5-2.6-39.8-3.5c-14.1-1-28.2-1.7-42.3-1.4c-15.4,0.4-30.7,2.9-45.3,7.7c-6.1,2-12,4.5-17.8,7.3
				c-4,1.9-7.9,4.1-12,5.9c-2.7,1.2-5.6,2.2-8.6,1.8c-2.6-0.4-4.9-1.8-7.2-2.8c-3.9-1.7-7.8-3.5-11.5-5.5
				c-5.5-2.9-11.2-6.7-13.4-12.8c-2.7-7.7-0.8-16.7,3.2-23.6c4.5-7.8,11.6-14.1,18.7-19.4c7.8-5.8,16.5-10.4,25.6-13.7
				c18.7-6.7,38.9-8.4,58.6-6.8c22.8,1.9,45,8,66.8,14.9c5.2,1.6,10.5,3.3,15.7,5c-0.1-0.5-0.1-0.9-0.2-1.4c-0.3,0.2-0.7,0.4-1,0.7
				c-0.7,0.5-0.3,1.6,0.6,1.4c14-3.6,28.8-7.4,43.2-3.6c6.5,1.7,12.3,4.9,16.9,9.8c4.4,4.6,7.7,10.1,11.7,15
				c2.1,2.5,4.4,4.7,6.9,6.7c2,1.5,4.2,2.8,6.1,4.4c2.5,2.2,4.9,4.9,5.8,8.1c1,3.3,0.1,6.7-1.4,9.7c-1.3,2.6-3,5.3-5.5,7
				c-2,1.3-4.4,2-6.7,2.4c-4,0.7-8.3,0.6-12.3-0.2c-7.3-1.6-14.6-3.2-21.9-5.1c-5.1-1.3-10.6-2.8-15-6
				C504.4,434.2,503.7,435.5,504.5,436.1z"/>
		</g>
	</g>
	<g>
		<path class="st8" d="M437.2,403.5c-8.5,3.8-16.8,8.3-24.5,13.5c-2.4,1.6-5,3.5-5.8,6.4c-1.1,3.9,1.9,8,5.6,9.6
			c3.7,1.6,7.9,1.4,11.9,1.1c8.3-0.5,16.6-1.1,24.9-1.6c4.5-0.3,10.4,0.3,11.6,4.7c0.8,2.9-1,5.7-2.4,8.4s-2.2,6.3,0.1,8.3
			c1.1,1,2.7,1.1,4.2,1.3c8.5,0.6,17-0.1,25.3-2.1c5.6-1.4,11.6-3.7,14.3-8.8c2.8-5.3,1.1-12.1-2.7-16.7c-3.9-4.6-9.4-7.3-15-9.5
			c-7.6-2.9-15.5-5-23.5-6.3"/>
		<g>
			<path d="M436.8,402.8c-7.8,3.5-15.4,7.6-22.6,12.2c-2.9,1.9-6.4,3.9-7.8,7.2c-1.2,2.9-0.3,6,1.6,8.3c5.1,6.2,14.6,4.4,21.6,4
				c4.6-0.3,9.1-0.6,13.7-0.9c3.6-0.2,7.5-0.8,11.1-0.2c3.1,0.5,6.2,2.2,5.9,5.8c-0.4,3.7-3.4,6.4-3.8,10.1
				c-0.4,3.1,1.2,5.6,4.3,6.2c1.9,0.4,4,0.4,5.9,0.4c2.2,0.1,4.5,0,6.7-0.1c11.8-0.7,34.1-3.8,30.9-20.6c-1.4-7.2-7-12.2-13.2-15.4
				c-7.2-3.7-15.3-6.1-23.2-7.8c-2.1-0.5-4.3-0.8-6.5-1.2c-0.9-0.1-1.4,1.3-0.4,1.4c7.9,1.2,15.6,3.3,23.1,6.1
				c6.5,2.5,13.4,5.8,16.9,12.1c1.6,2.9,2.5,6.4,2,9.7c-0.5,3.3-2.5,6-5.1,7.9c-2.6,1.8-5.6,2.9-8.7,3.8c-3.9,1-7.9,1.7-11.9,2.2
				c-4.1,0.4-8.2,0.5-12.2,0.3c-1.8-0.1-4,0-5.5-1c-1.4-0.9-1.7-2.6-1.5-4.2c0.5-3.4,3.1-6,3.7-9.3c0.5-2.6-0.5-5.2-2.8-6.6
				c-2.2-1.4-5-1.7-7.5-1.7c-3.8,0-7.7,0.4-11.5,0.7c-4.2,0.3-8.5,0.5-12.7,0.8c-3.8,0.2-7.8,0.7-11.6,0c-3.3-0.7-6.6-2.7-7.8-6.1
				c-1.3-3.7,1.2-6.5,4-8.6c6.3-4.6,13.3-8.4,20.3-11.8c1.8-0.9,3.7-1.7,5.5-2.6C438.5,403.7,437.7,402.5,436.8,402.8L436.8,402.8z"
				/>
		</g>
	</g>
	<g>
		<path class="st8" d="M331.6,411.3c15.4-4.9,32.1-3.8,48.2-2.6c5.6,0.4,12.5,1.7,14.3,7c2.5,7.1-6.4,15.8-1.7,21.7
			c1.4,1.8,3.7,2.6,5.9,3.2c9.5,2.3,19.4,0.6,29-1.2c5.6-1.1,13-1.4,15.4,3.8c1.8,3.8-0.7,8.5-4.3,10.7s-8,2.5-12.2,2.7
			c-15.7,0.9-31.5,1.7-47.2,2.6c-5.2,0.3-11.7-0.2-13.7-5c-1.3-3.1,0-6.9-1.9-9.7c-2.1-3.2-16,14.9-45,5.9"/>
		<g>
			<path d="M331.8,412c11.6-3.7,23.9-3.9,36-3.3c2.9,0.1,5.9,0.3,8.8,0.6c2.6,0.2,5.1,0.3,7.6,0.8c4,0.8,8.6,2.5,9.4,7
				c1.4,7-7.8,16.3-0.7,22.1c2,1.6,4.6,2.2,7,2.7c2.8,0.5,5.7,0.8,8.6,0.8c6.1,0,12.1-1,18.1-2.2c4-0.8,9-1.6,12.8,0.5
				c4.6,2.6,3.5,8.4,0.1,11.4c-4.3,3.8-11.1,3.5-16.4,3.8c-6.4,0.4-12.7,0.7-19.1,1.1c-6.5,0.4-12.9,0.7-19.4,1.1
				c-4.7,0.3-10.2,1.1-14.7-0.7c-2-0.8-3.6-2.4-4.1-4.6c-0.6-2.5-0.1-5.2-1-7.6c-0.6-1.6-1.5-2.2-3.1-1.7c-1.6,0.5-3,1.5-4.5,2.3
				c-2.3,1.3-4.7,2.5-7.2,3.4c-7.5,2.9-15.7,3.6-23.7,2.3c-2.6-0.4-5.1-1.1-7.6-1.8c-0.9-0.3-1.3,1.2-0.4,1.4
				c8.9,2.7,18.3,3.5,27.3,1.1c5.3-1.4,10-3.9,14.9-6.5c0.6-0.3,1.2-0.6,1.8-0.8c0.3-0.1,0.3-0.1,0.5-0.1c0,0,0.1,0,0.1,0
				c0.5,0.6,0.9,2.1,1,3.2c0.1,1.3,0.1,2.6,0.3,3.9c0.3,2.2,1.1,4.1,2.8,5.5c3.3,2.7,8.1,2.7,12.2,2.5c6.6-0.3,13.2-0.7,19.9-1.1
				c6.6-0.4,13.2-0.7,19.9-1.1c3.2-0.2,6.4-0.3,9.6-0.5c2.7-0.2,5.5-0.5,8-1.5c4.2-1.6,8-5.5,7.6-10.3c-0.4-4.3-4.1-6.7-8.1-7.2
				c-4.9-0.6-9.7,0.7-14.5,1.5c-6.4,1.1-12.9,1.8-19.3,0.9c-2.7-0.4-5.8-0.9-8.1-2.5c-1.8-1.3-2.5-3.4-2.3-5.6
				c0.4-4.2,2.8-8,3.4-12.2c0.6-4.1-1.1-7.8-4.8-9.8c-4-2.2-8.8-2.4-13.3-2.7c-12.2-0.9-24.6-1.6-36.7,0.6c-3,0.5-6,1.3-8.9,2.2
				C330.4,410.9,330.8,412.3,331.8,412L331.8,412z"/>
		</g>
	</g>
	<g>
		<path class="st8" d="M508.1,393.6c-9.1-7.7-19.6-13.8-30.9-17.9c-1.7-0.6-3.6-1.2-5.4-0.8c-1.7,0.4-3,1.7-4.1,3
			c-5.8,6.3-10.7,13.5-14.4,21.3c6.3,2.2,13.1,2.8,19.7,1.6"/>
		<g>
			<path d="M508.6,393.1c-7.5-6.3-15.8-11.5-24.7-15.5c-2.1-0.9-4.3-1.8-6.5-2.6c-2.2-0.8-4.5-1.4-6.7-0.4c-2.1,0.9-3.6,2.8-5,4.5
				c-1.6,1.8-3.1,3.7-4.5,5.6c-3.3,4.4-6.2,9.2-8.6,14.2c-0.2,0.5,0,0.9,0.4,1.1c6.5,2.2,13.3,2.7,20.1,1.6c0.9-0.2,0.5-1.6-0.4-1.4
				c-6.5,1.1-13.1,0.5-19.3-1.6c0.1,0.4,0.3,0.7,0.4,1.1c2-4.1,4.2-8,6.8-11.7c2.5-3.7,5.3-7.5,8.6-10.6c0.9-0.8,1.8-1.5,3-1.7
				c1.4-0.2,2.7,0.2,4,0.6c2.2,0.8,4.4,1.7,6.6,2.6c4.1,1.8,8.2,3.9,12,6.3c4.4,2.7,8.7,5.7,12.6,9.1
				C508.3,394.7,509.4,393.7,508.6,393.1L508.6,393.1z"/>
		</g>
	</g>
	<g>
		<g>
			<path d="M518.5,411c2.4,0,4.8,0,7.3,0c1,0,1-1.5,0-1.5c-2.4,0-4.8,0-7.3,0C517.6,409.5,517.6,411,518.5,411L518.5,411z"/>
		</g>
	</g>
	<g>
		<g>
			<path d="M564.5,422.4c-2.3,0.4-4.6,0.8-6.9,1.2c-1.1,0.2-2.2,0.3-3.3,0.6c-0.7,0.2-1.5,0.5-1.9,1.2c-1,1.8,1.1,3.2,2.4,4
				c1.6,1,3.5,1.8,5.3,2.2c2.2,0.5,4.4,0.7,6.7,0.4c0.9-0.1,1-1.6,0-1.5c-4.2,0.5-8.5-0.5-12-2.9c-0.6-0.4-1.7-1.3-0.6-1.8
				c0.9-0.4,2.1-0.5,3.2-0.7c2.5-0.5,5.1-0.9,7.6-1.4C565.9,423.6,565.4,422.2,564.5,422.4L564.5,422.4z"/>
		</g>
	</g>
</g>
<g>
	<path class="st5" d="M172,390.2c18.4,1.8,38.7,11,61.7,15.6c22.2,4.4,44.2,9.2,65.4,20.2c16.2,8.5,28.1,35.2,26.3,53.4
		c-0.4,3.9-1.3,7.8-3.3,11.1c-2.6,4.2-29.7,29.3-58,15.6c-11.5-5.5-24.9-36.8-15.6-50.6c12.8-19.1,28.8-18.9,35.9-20.2"/>
	<g>
		<path class="st6" d="M172,391.6c14.4,1.5,28.2,6.7,42,10.8c7.7,2.2,15.4,4.1,23.3,5.7c7.8,1.6,15.6,3.3,23.3,5.3
			c7.8,2,15.5,4.4,23,7.3c3.8,1.5,7.6,3.1,11.3,5c2.8,1.4,5.5,2.7,8,4.6c9.3,7.2,15.5,18.7,18.8,29.8c1.6,5.5,2.6,11.2,2.5,17
			c-0.1,3.4-0.6,6.8-1.8,9.9c-0.4,1.2-1,2.3-1.7,3.3c0,0.1-0.3,0.3,0,0c-0.1,0.1-0.1,0.2-0.2,0.2c-0.2,0.2-0.3,0.4-0.5,0.6
			c-5.6,6.3-13.4,11.1-21.2,14.2c-5.5,2.2-11.3,3.5-17.2,3.5c-6,0-12.7-1.3-17.8-4.4c-3.6-2.2-6.3-5.9-8.5-9.5
			c-2.8-4.6-5-9.6-6.5-14.8c-1.4-5-2.3-10.3-1.8-15.5c0.2-2.2,0.7-4.4,1.6-6.3c1.3-2.8,3.4-5.4,5.5-7.7c3.9-4.4,8.7-7.9,14.1-10.2
			c3.9-1.6,8.1-2.5,12.3-3.1c1.4-0.2,2.9-0.4,4.3-0.7c1.7-0.3,1-3-0.7-2.7c-3.6,0.7-7.2,1-10.7,1.9c-5.1,1.3-10,3.4-14.3,6.6
			c-2.7,2-5.2,4.3-7.5,6.9c-2.1,2.4-4.2,5-5.6,8c-2.1,4.6-2.3,9.9-1.7,14.9c0.7,5.7,2.3,11.2,4.6,16.5c2.1,4.9,4.8,9.5,8.2,13.5
			c1.4,1.6,3,3.1,4.8,4.3c2.5,1.6,5.5,2.7,8.3,3.5c6.3,1.8,12.9,2,19.3,0.9c10.5-1.9,20.4-7.2,28.4-14c2.3-1.9,4.6-4,6-6.7
			c3-5.9,3.4-13,2.7-19.4c-1.3-12.4-6.4-24.7-14-34.5c-3.5-4.5-7.8-8.6-12.9-11.3c-7.6-4-15.5-7.2-23.6-10c-7.9-2.6-15.9-4.8-24-6.6
			c-8.1-1.9-16.3-3.3-24.5-5.2c-15.4-3.7-30.2-9.5-45.6-12.7c-3.3-0.7-6.6-1.2-10-1.6C170.2,388.6,170.2,391.4,172,391.6L172,391.6z
			"/>
	</g>
</g>
</svg>
